<svg width="24" height="24" viewBox="0 0 24 24" fill="none" xmlns="http://www.w3.org/2000/svg">
<g clip-path="url(#clip0_1291_12)">
<path d="M0 0C7.92 0 15.84 0 24 0C24 7.92 24 15.84 24 24C16.08 24 8.16 24 0 24C0 16.08 0 8.16 0 0Z" fill="url(#paint0_radial_1291_12)"/>
<path d="M18.143 4.14805C18.2809 4.1482 18.4187 4.14836 18.5607 4.14852C19.078 4.21584 19.4353 4.38947 19.8078 4.68487C19.9611 4.80645 20.0916 4.95721 20.1761 5.13369C20.3234 5.44125 20.3214 5.65725 20.2444 6.07649C19.96 7.03942 19.4588 7.65355 18.6005 8.16055C18.4624 8.2232 18.3243 8.28584 18.1819 8.35039C17.419 8.70268 17.3094 8.75331 16.9342 9.24217C16.7899 9.43014 16.681 9.64448 16.6286 9.87555C16.5415 10.2592 16.4904 10.6482 16.4405 11.0405C16.413 11.2244 16.3849 11.4081 16.3562 11.5918C16.3118 11.8764 16.2676 12.161 16.2252 12.4459C15.8436 14.9419 15.0628 18.2007 12.9605 19.8005C12.211 20.2672 11.4361 20.5545 10.5704 20.4433C10.4035 20.4219 10.2427 20.3651 10.0978 20.2793C9.09977 19.6883 8.57987 18.7077 8.16054 17.6405C8.1231 17.5462 8.08567 17.4518 8.0471 17.3546C7.79615 16.5969 7.77145 15.8584 7.74804 15.068C7.71164 13.8713 7.54292 12.7543 7.27149 11.5897C7.19564 11.2592 7.12596 10.9277 7.05663 10.5957C7.00731 10.3689 6.95778 10.1422 6.90804 9.91555C6.88634 9.81066 6.86465 9.70577 6.84229 9.59771C6.63445 8.69136 6.23163 8.20592 5.51304 7.61305C4.48143 6.73326 4.48143 6.73326 4.41194 6.09992C4.39539 5.5248 4.42506 5.15885 4.68177 4.75518C4.82179 4.53501 5.03799 4.36653 5.29325 4.3125C5.7365 4.21867 6.22728 4.29156 6.66007 4.3857C7.46269 4.65924 8.01276 5.16326 8.61054 5.7432C9.01414 6.12789 9.26081 6.14571 9.81522 6.1407C10.0783 6.12072 10.3068 6.07125 10.5605 6.00055C11.1518 5.83898 11.7135 5.83475 12.316 5.93088C13.3304 6.07627 13.9542 5.85695 14.843 5.37805C15.076 5.25872 15.3089 5.1395 15.5419 5.02039C15.6533 4.96272 15.7646 4.90505 15.8792 4.84564C17.2658 4.13318 17.2658 4.13318 18.143 4.14805Z" fill="#FBFBFB"/>
<path d="M11.2123 16.2725C11.5784 16.2614 11.95 16.386 12.2584 16.5836V16.5836C12.819 16.9429 13.1086 17.6266 13.0058 18.2845C12.9985 18.3316 12.9894 18.3785 12.9783 18.4251C12.901 18.7517 12.6943 19.0317 12.449 19.2607C12.0978 19.5886 11.7272 19.7748 11.1678 19.8455C11.1496 19.8459 11.1316 19.8463 11.1137 19.8466C10.1644 19.866 9.37942 19.1495 9.41772 18.2008V18.2008C9.43565 17.7566 9.54576 17.2931 9.8288 16.9503C10.1812 16.5234 10.6539 16.2894 11.2123 16.2725Z" fill="#050505"/>
<path d="M13.5166 9.64383C13.7571 9.50422 14.0672 9.52567 14.3095 9.66209C14.4783 9.75711 14.6008 9.89531 14.7552 10.108C15.0922 10.6819 15.1463 11.1836 15.0623 11.7719C15.0291 12.0047 14.9057 12.3431 14.7812 12.5425V12.5425C14.5669 12.8859 14.19 12.8647 13.786 12.8396C13.6673 12.8323 13.5494 12.8191 13.4336 12.7975C13.0319 12.7224 12.6552 12.4679 12.5264 12.0801C12.4893 11.968 12.4667 11.8469 12.4551 11.7112C12.4921 11.0476 12.6479 10.5988 13.0799 10.0804C13.1086 10.0441 13.1299 10.0171 13.1476 9.9946C13.2521 9.86229 13.3708 9.72846 13.5166 9.64383V9.64383Z" fill="#060606"/>
<path d="M8.68697 10.154C8.97775 9.98147 9.34292 9.95683 9.6317 10.1327V10.1327C9.84944 10.2653 10.0329 10.4998 10.1382 10.7319C10.2066 10.8828 10.2374 11.0158 10.2354 11.1832C10.2327 11.4084 10.159 11.6286 10.0407 11.8203C10.012 11.8669 9.98274 11.9097 9.95173 11.95C9.70277 12.2741 9.25178 12.4002 8.85781 12.2915V12.2915C8.53646 12.2029 8.31885 11.9028 8.26398 11.574C8.24386 11.4534 8.23465 11.3328 8.23438 11.2101C8.2336 10.8576 8.31451 10.4795 8.57261 10.2395C8.60779 10.2068 8.64533 10.1787 8.68697 10.154Z" fill="#0A0A0A"/>
<path d="M15.4743 6.13519C15.6614 6.10609 15.8049 6.29234 15.7678 6.47797C15.7588 6.52282 15.7498 6.56784 15.7407 6.61312C15.7284 6.67476 15.6751 6.71914 15.6123 6.71914V6.71914C15.5394 6.71914 15.4795 6.77819 15.4795 6.85102C15.4795 6.97664 15.4795 7.10253 15.4795 7.22947C15.4795 7.42835 15.3944 7.61396 15.1987 7.64944V7.64944C15.0921 7.66877 14.9481 7.65033 14.8554 7.59419C14.7349 7.52127 14.6929 7.48566 14.5711 7.36884C14.5381 7.33717 14.5195 7.29396 14.5195 7.24823V7.24823C14.5195 7.1552 14.5949 7.07914 14.688 7.07914C14.6988 7.07914 14.7097 7.07914 14.7206 7.07914C14.8578 7.07914 14.9547 6.9447 14.9113 6.81451C14.8939 6.76224 14.8764 6.70985 14.8589 6.65725C14.8037 6.49166 14.8913 6.31154 15.0562 6.25442C15.2549 6.18561 15.3675 6.1518 15.4743 6.13519Z" fill="#1B1B1B"/>
</g>
<defs>
<radialGradient id="paint0_radial_1291_12" cx="0" cy="0" r="1" gradientUnits="userSpaceOnUse" gradientTransform="translate(7 7.5) rotate(45) scale(15.5563 16.2128)">
<stop stop-color="#666666"/>
<stop offset="1"/>
</radialGradient>
<clipPath id="clip0_1291_12">
<rect width="24" height="24" rx="12" fill="white"/>
</clipPath>
</defs>
</svg>
