<svg width="24" height="24" viewBox="0 0 24 24" fill="none" xmlns="http://www.w3.org/2000/svg">
<g clip-path="url(#clip0_1290_53)">
<path d="M24 12C24 5.37258 18.6274 0 12 0C5.37258 0 0 5.37258 0 12C0 18.6274 5.37258 24 12 24C18.6274 24 24 18.6274 24 12Z" fill="url(#paint0_linear_1290_53)"/>
<path fill-rule="evenodd" clip-rule="evenodd" d="M7.16937 15.5307C7.29486 15.7698 7.49923 15.9581 7.74781 16.0635C7.97098 16.1772 8.21735 16.238 8.46781 16.2411H15.4722C15.7366 16.2576 15.9999 16.1959 16.2294 16.0635C16.3745 16.0159 16.5087 15.9397 16.6241 15.8396C16.7395 15.7394 16.8337 15.6173 16.9014 15.4803C17.0523 15.2241 17.1179 14.9266 17.0886 14.6307C17.0671 14.3575 16.9699 14.0957 16.8078 13.8747L12.465 6.2907C12.4108 6.21139 12.3384 6.14624 12.2539 6.10072C12.1693 6.0552 12.075 6.03064 11.979 6.02914C11.8802 6.02089 11.7811 6.04114 11.6935 6.0875C11.6059 6.13386 11.5333 6.20441 11.4846 6.2907L7.12259 13.8747C6.96931 14.1135 6.89426 14.3941 6.90781 14.6775C6.92196 14.9794 7.01196 15.2728 7.16937 15.5307ZM12.5298 8.65714L15.8742 14.4939C15.9606 14.6715 16.005 14.7603 16.005 14.7603C16.0175 14.8396 16.0018 14.9207 15.9606 14.9895C15.9271 15.0698 15.8633 15.1336 15.783 15.1671H12.5298V8.65714ZM8.06581 14.7279C8.04776 14.6384 8.04776 14.5462 8.06581 14.4567L11.4846 8.62831V15.1287H8.51459C8.40959 15.1402 8.30337 15.1245 8.2062 15.0831L8.15937 15.0363C8.11259 15.0363 8.11259 14.9523 8.06581 14.9523C8.0442 14.8791 8.0442 14.8011 8.06581 14.7279Z" fill="white"/>
</g>
<defs>
<linearGradient id="paint0_linear_1290_53" x1="12" y1="0" x2="12" y2="24" gradientUnits="userSpaceOnUse">
<stop stop-color="#F8C400"/>
<stop offset="1" stop-color="#FF9B50"/>
</linearGradient>
<clipPath id="clip0_1290_53">
<rect width="24" height="24" fill="white"/>
</clipPath>
</defs>
</svg>
