<svg width="24" height="24" viewBox="0 0 24 24" fill="none" xmlns="http://www.w3.org/2000/svg">
<g clip-path="url(#clip0_1290_62)">
<path d="M0 12C0 18.6274 5.37258 24 12 24C18.6274 24 24 18.6274 24 12C24 5.37258 18.6274 0 12 0C5.37258 0 0 5.37258 0 12Z" fill="url(#paint0_linear_1290_62)"/>
<path fill-rule="evenodd" clip-rule="evenodd" d="M16.8306 8.4693C16.7051 8.23019 16.5008 8.04194 16.2522 7.93647C16.029 7.8228 15.7826 7.76205 15.5322 7.7589H8.5278C8.26343 7.74236 8.00008 7.80414 7.77063 7.93647C7.62546 7.98414 7.4913 8.06031 7.37589 8.16044C7.26054 8.26056 7.16627 8.38272 7.09863 8.51969C6.94769 8.77586 6.88211 9.07337 6.91141 9.3693C6.93288 9.64248 7.03015 9.90428 7.19219 10.1253L11.535 17.7093C11.5892 17.7886 11.6616 17.8538 11.7461 17.8993C11.8307 17.9448 11.925 17.9694 12.021 17.9709C12.1198 17.9791 12.2189 17.9589 12.3065 17.9125C12.3941 17.8661 12.4667 17.7956 12.5154 17.7093L16.8774 10.1253C17.0307 9.88651 17.1057 9.60592 17.0922 9.32247C17.078 9.02064 16.988 8.7272 16.8306 8.4693ZM11.4702 15.3429L8.1258 9.50608C8.03941 9.32847 7.99502 9.23969 7.99502 9.23969C7.98246 9.16042 7.99821 9.07933 8.03941 9.01047C8.07288 8.93017 8.13672 8.86637 8.21702 8.83286H11.4702V15.3429ZM15.9342 9.27208C15.9522 9.36156 15.9522 9.45376 15.9342 9.54329L12.5154 15.3717V8.87129H15.4854C15.5904 8.85976 15.6966 8.87547 15.7938 8.91686L15.8406 8.96369C15.8874 8.96369 15.8874 9.04768 15.9342 9.04768C15.9558 9.1209 15.9558 9.19886 15.9342 9.27208Z" fill="white"/>
</g>
<defs>
<linearGradient id="paint0_linear_1290_62" x1="12" y1="0" x2="12" y2="24" gradientUnits="userSpaceOnUse">
<stop stop-color="#67E8F9"/>
<stop offset="1" stop-color="#007AFF"/>
</linearGradient>
<clipPath id="clip0_1290_62">
<rect width="24" height="24" fill="white" transform="matrix(-1 0 0 -1 24 24)"/>
</clipPath>
</defs>
</svg>
