<svg width="24" height="24" viewBox="0 0 24 24" fill="none" xmlns="http://www.w3.org/2000/svg">
<path d="M17.9143 5.33929H6.08571C5.47855 5.33927 4.89601 5.57933 4.46515 6.00712C4.03429 6.43491 3.79005 7.01571 3.78571 7.62286V17.8825C3.79005 18.4896 4.03429 19.0704 4.46515 19.4982C4.89601 19.926 5.47855 20.1661 6.08571 20.1661H7.48214V21.4393C7.48194 21.7355 7.56602 22.0256 7.72457 22.2758C7.88311 22.526 8.10958 22.7259 8.3775 22.8521C8.58903 22.9485 8.81862 22.9989 9.05107 23C9.41189 22.999 9.76086 22.8711 10.0368 22.6386L13.0104 20.1743H17.9389C18.5432 20.1678 19.1207 19.9238 19.5465 19.4949C19.9723 19.066 20.2122 18.4868 20.2143 17.8825V7.62286C20.2099 7.01571 19.9657 6.43491 19.5349 6.00712C19.104 5.57933 18.5214 5.33927 17.9143 5.33929ZM13.6429 15.4921H7.89286C7.675 15.4921 7.46607 15.4056 7.31202 15.2516C7.15797 15.0975 7.07143 14.8886 7.07143 14.6707C7.07143 14.4529 7.15797 14.2439 7.31202 14.0899C7.46607 13.9358 7.675 13.8493 7.89286 13.8493H13.6429C13.8607 13.8493 14.0696 13.9358 14.2237 14.0899C14.3777 14.2439 14.4643 14.4529 14.4643 14.6707C14.4643 14.8886 14.3777 15.0975 14.2237 15.2516C14.0696 15.4056 13.8607 15.4921 13.6429 15.4921ZM16.1071 11.9354H7.89286C7.675 11.9354 7.46607 11.8488 7.31202 11.6948C7.15797 11.5407 7.07143 11.3318 7.07143 11.1139C7.07143 10.8961 7.15797 10.6871 7.31202 10.5331C7.46607 10.379 7.675 10.2925 7.89286 10.2925H16.1071C16.325 10.2925 16.5339 10.379 16.688 10.5331C16.842 10.6871 16.9286 10.8961 16.9286 11.1139C16.9286 11.3318 16.842 11.5407 16.688 11.6948C16.5339 11.8488 16.325 11.9354 16.1071 11.9354ZM2.14286 15.9439C1.70714 15.9439 1.28928 15.7708 0.981182 15.4627C0.673086 15.1547 0.5 14.7368 0.5 14.3011V10.6046C0.5 10.1689 0.673086 9.75106 0.981182 9.44297C1.28928 9.13487 1.70714 8.96179 2.14286 8.96179V15.9439ZM21.8571 8.96179V15.9439C22.2929 15.9439 22.7107 15.7708 23.0188 15.4627C23.3269 15.1547 23.5 14.7368 23.5 14.3011V10.6046C23.5 10.1689 23.3269 9.75106 23.0188 9.44297C22.7107 9.13487 22.2929 8.96179 21.8571 8.96179ZM16.1071 3.69643V0.821429C16.1071 0.603572 16.1937 0.394639 16.3477 0.240591C16.5018 0.0865431 16.7107 0 16.9286 0C17.1464 0 17.3554 0.0865431 17.5094 0.240591C17.6635 0.394639 17.75 0.603572 17.75 0.821429V3.69643H16.1071Z" fill="white"/>
</svg>
