<svg width="32" height="32" viewBox="0 0 32 32" fill="none" xmlns="http://www.w3.org/2000/svg">
<g clip-path="url(#clip0_1256_3)">
<path d="M16 0C-5.33103 0.669714 -5.33564 31.328 16 32C37.331 31.3303 37.3356 0.672 16 0Z" fill="#E9E9E9"/>
<path d="M17.6612 15.9998L22.646 11.0152C23.7397 9.95317 22.0468 8.26032 20.9848 9.35404L16 14.3386L11.0152 9.35404C9.95321 8.26032 8.26029 9.95317 9.35405 11.0152L14.3388 15.9998L9.35405 20.9843C8.26147 22.0463 9.95321 23.7404 11.0152 22.6455L16 17.6609L20.9848 22.6455C22.0468 23.7404 23.7397 22.0463 22.646 20.9843L17.6612 15.9998Z" fill="#333333"/>
</g>
<defs>
<clipPath id="clip0_1256_3">
<rect width="32" height="32" fill="white"/>
</clipPath>
</defs>
</svg>
