<svg width="24" height="24" viewBox="0 0 24 24" fill="none" xmlns="http://www.w3.org/2000/svg">
<g clip-path="url(#clip0_1280_1012)">
<path d="M14.8212 4.03042L1.61616 17.2365C1.54966 17.3032 1.50227 17.3865 1.47893 17.4777L0.0152266 23.3525C-0.00630081 23.4397 -0.00498154 23.531 0.0190569 23.6175C0.0430954 23.704 0.0890408 23.7829 0.152455 23.8465C0.249859 23.9435 0.381739 23.9981 0.519258 23.9982C0.561681 23.9982 0.603941 23.993 0.645083 23.9826L6.51993 22.5187C6.61128 22.4958 6.69466 22.4484 6.76115 22.3817L19.9674 9.17653L14.8212 4.03042ZM23.2389 2.22979L21.7689 0.759895C20.7865 -0.222536 19.0742 -0.221561 18.0929 0.759895L16.2923 2.56053L21.4383 7.70645L23.2389 5.90586C23.7296 5.41533 23.9999 4.76237 23.9999 4.06795C23.9999 3.37352 23.7296 2.72056 23.2389 2.22979Z" fill="#333333"/>
</g>
<defs>
<clipPath id="clip0_1280_1012">
<rect width="24" height="24" fill="white"/>
</clipPath>
</defs>
</svg>
