<svg width="512" height="512" viewBox="0 0 512 512" fill="none" xmlns="http://www.w3.org/2000/svg">
<path d="M401.483 96.766L316.462 11.742C308.671 3.95 300.605 0 292.488 0C280.105 0 267.605 9.89 267.605 31.98V55.36C146.894 62.487 46.9635 155.124 32.1115 276.41C31.7075 279.705 32.408 283.04 34.1031 285.894C35.7982 288.748 38.3921 290.959 41.4785 292.18C44.5649 293.403 47.9697 293.566 51.1593 292.646C54.3489 291.726 57.1429 289.773 59.1035 287.094C98.9395 232.664 162.901 200.168 230.198 200.168C242.671 200.168 255.206 201.293 267.604 203.52V229.262C267.604 237.438 269.241 244.297 272.46 249.641C276.905 257.016 284.202 261.242 292.487 261.242C300.604 261.242 308.671 257.289 316.464 249.5L401.483 164.477C420.15 145.809 420.15 115.43 401.483 96.766Z" fill="white"/>
<path d="M470.257 219.82C467.17 218.599 463.765 218.437 460.576 219.358C457.386 220.279 454.593 222.232 452.632 224.91C412.796 279.336 348.835 311.832 281.538 311.832C268.995 311.825 256.477 310.703 244.132 308.48V282.738C244.132 260.648 231.636 250.758 219.249 250.758C211.132 250.758 203.065 254.711 195.276 262.504L110.253 347.524C91.585 366.191 91.585 396.566 110.253 415.238L195.276 500.258C203.066 508.05 211.132 512 219.249 512C231.636 512 244.132 502.11 244.132 480.02V456.64C364.847 449.512 464.776 356.875 479.624 235.594C480.029 232.299 479.328 228.963 477.633 226.108C475.938 223.254 473.344 221.042 470.257 219.82Z" fill="white"/>
</svg>
