<svg width="24" height="24" viewBox="0 0 24 24" fill="none" xmlns="http://www.w3.org/2000/svg">
<g clip-path="url(#clip0_1261_6)">
<path d="M10.6557 13.3267H2.8616C2.24404 13.3267 1.73871 13.8319 1.73871 14.4495V22.8773C1.73871 23.4948 2.24404 24.0001 2.8616 24.0001H10.7867C11.0509 24.0001 11.0509 23.7163 11.0509 23.7163V13.7083C11.0508 13.7083 11.0508 13.3267 10.6557 13.3267ZM21.1367 13.3267H13.3505C12.8763 13.3267 12.9473 13.8206 12.9473 13.8206V23.7255C12.9473 23.7255 12.9434 23.9998 13.2287 23.9998H21.1365C21.7541 23.9998 22.2594 23.4946 22.2594 22.877V14.4495C22.2595 13.8319 21.7542 13.3267 21.1367 13.3267ZM11.0508 6.69559C11.0508 6.69559 11.0508 6.3151 10.6748 6.3151H1.59359C0.976026 6.3151 0.470703 6.82042 0.470703 7.4379V10.9429C0.470703 11.5605 0.976026 12.0657 1.59359 12.0657H10.7056C11.0508 12.0657 11.0508 11.7663 11.0508 11.7663V6.69559ZM22.4046 6.3151H13.2944C12.9474 6.3151 12.9474 6.64568 12.9474 6.64568V11.7733C12.9474 11.7733 12.9474 12.0657 13.3692 12.0657H22.4046C23.0221 12.0657 23.5275 11.5605 23.5275 10.9429V7.4379C23.5275 6.82042 23.0221 6.3151 22.4046 6.3151ZM7.23165 5.48435C6.7179 5.48435 6.24866 5.44361 5.83717 5.36319C4.792 5.159 4.07365 4.76158 3.64106 4.14836C3.25345 3.59878 3.13483 2.92125 3.28839 2.13451C3.55737 0.758025 4.48179 0 5.89116 0C6.18943 0 6.51699 0.0344408 6.86483 0.102423C7.74966 0.275281 8.88138 0.782649 9.89227 1.4596C11.6074 2.60826 11.6922 3.32235 11.6068 3.75961C11.4812 4.40212 10.8807 4.86122 9.77078 5.16326C9.02094 5.36728 8.09545 5.48435 7.23165 5.48435ZM5.89124 1.79967C5.34543 1.79967 5.15784 1.95216 5.05485 2.47957C4.97059 2.91078 5.07685 3.06139 5.1117 3.11088C5.25765 3.31785 5.6378 3.49046 6.18223 3.59673C6.476 3.65416 6.83898 3.68451 7.23157 3.68451C8.09488 3.68451 8.85544 3.5537 9.36011 3.41062C9.39684 3.40023 9.45386 3.35679 9.39275 3.32039C8.73298 2.78291 7.52591 2.06522 6.51977 1.86864C6.28539 1.82299 6.07384 1.79967 5.89124 1.79967ZM16.7925 5.48435H16.7924C15.9286 5.48435 15.0032 5.36728 14.2533 5.16326C13.1434 4.86131 12.5429 4.40212 12.4173 3.75969C12.332 3.32243 12.4167 2.60834 14.1319 1.45968C15.1426 0.782731 16.2744 0.275363 17.1594 0.102504C17.5072 0.0345226 17.8348 8.18071e-05 18.1328 8.18071e-05C19.5425 8.18071e-05 20.4668 0.758188 20.7356 2.13467C20.8893 2.92133 20.7707 3.59886 20.383 4.14844C19.9505 4.76175 19.2322 5.15908 18.1868 5.36327C17.7754 5.44353 17.3062 5.48435 16.7925 5.48435ZM14.6458 3.30926C14.5873 3.34321 14.6156 3.3968 14.6459 3.40555C15.1503 3.55059 15.9189 3.68459 16.7924 3.68459C17.1851 3.68459 17.5479 3.65424 17.8418 3.59681C18.3861 3.49046 18.7665 3.31793 18.9123 3.11096C18.9473 3.06147 19.0537 2.91086 18.9692 2.47966C18.8663 1.95225 18.6786 1.79976 18.1327 1.79976C17.9502 1.79976 17.7388 1.82299 17.5043 1.8688C16.498 2.0653 15.3055 2.77171 14.6458 3.30926Z" fill="white"/>
</g>
<defs>
<clipPath id="clip0_1261_6">
<rect width="24" height="24" fill="white"/>
</clipPath>
</defs>
</svg>
