<svg width="24" height="24" viewBox="0 0 24 24" fill="none" xmlns="http://www.w3.org/2000/svg">
<g clip-path="url(#clip0_1304_3)">
<rect width="24" height="24" rx="12" fill="url(#paint0_linear_1304_3)"/>
<path d="M11.704 7.672C11.72 7.664 11.792 7.66 11.92 7.66C12.056 7.676 12.144 7.688 12.184 7.696C12.496 7.792 12.72 7.976 12.856 8.248C12.928 8.4 12.964 8.548 12.964 8.692C12.964 8.844 12.928 8.992 12.856 9.136C12.72 9.416 12.496 9.604 12.184 9.7C12.112 9.716 12.012 9.724 11.884 9.724C11.748 9.724 11.648 9.716 11.584 9.7C11.264 9.604 11.036 9.416 10.9 9.136C10.836 9.008 10.804 8.86 10.804 8.692C10.804 8.58 10.808 8.5 10.816 8.452C10.856 8.308 10.928 8.172 11.032 8.044C11.2 7.844 11.424 7.72 11.704 7.672ZM11.62 10.648C12.42 10.616 12.804 10.6 12.772 10.6H12.844V12.868V15.136H13.216H13.588V15.568V16H13.48L12.712 15.976C12.272 15.968 11.816 15.968 11.344 15.976L10.528 16H10.42V15.568V15.136H10.84H11.248V13.492C11.248 12.38 11.244 11.808 11.236 11.776C11.204 11.68 11.152 11.624 11.08 11.608C10.968 11.576 10.808 11.56 10.6 11.56H10.456V11.128V10.696H10.492L11.62 10.648Z" fill="white"/>
</g>
<defs>
<linearGradient id="paint0_linear_1304_3" x1="12" y1="0" x2="12" y2="24" gradientUnits="userSpaceOnUse">
<stop stop-color="#77E4C8"/>
<stop offset="1" stop-color="#007AFF"/>
</linearGradient>
<clipPath id="clip0_1304_3">
<rect width="24" height="24" fill="white"/>
</clipPath>
</defs>
</svg>
