<svg width="24" height="24" viewBox="0 0 24 24" fill="none" xmlns="http://www.w3.org/2000/svg">
<path d="M11.0053 2.01034L10.9978 19.5662L7.70959 16.2856C7.61661 16.1903 7.50554 16.1144 7.38288 16.0625C7.26023 16.0106 7.12845 15.9836 6.99526 15.9833C6.7981 15.986 6.60614 16.0469 6.44345 16.1584C6.28077 16.2698 6.15458 16.4267 6.08073 16.6096C6.00687 16.7924 5.98862 16.993 6.02827 17.1861C6.06792 17.3793 6.1637 17.5564 6.30361 17.6954L11.3001 22.6995C11.3932 22.7926 11.5036 22.8665 11.6252 22.9169C11.7468 22.9673 11.8772 22.9933 12.0088 22.9933C12.1404 22.9933 12.2708 22.9673 12.3924 22.9169C12.514 22.8665 12.6244 22.7926 12.7175 22.6995L17.714 17.6954C18.6929 16.7505 17.234 15.3029 16.2967 16.2856L12.9971 19.5851L13.0047 2.01034C13.0131 1.87389 12.9935 1.73716 12.947 1.60859C12.9006 1.48001 12.8283 1.3623 12.7347 1.26271C12.641 1.16312 12.528 1.08375 12.4025 1.0295C12.277 0.975252 12.1417 0.947266 12.005 0.947266C11.8683 0.947266 11.7331 0.975252 11.6076 1.0295C11.4821 1.08375 11.369 1.16312 11.2754 1.26271C11.1817 1.3623 11.1095 1.48001 11.063 1.60859C11.0166 1.73716 10.9969 1.87389 11.0053 2.01034Z" fill="#333333"/>
</svg>
