<svg width="24" height="24" viewBox="0 0 24 24" fill="none" xmlns="http://www.w3.org/2000/svg">
<g clip-path="url(#clip0_1286_52)">
<path d="M5.9555 9.9999H18.0462C18.2801 9.9999 18.4826 9.90101 18.6535 9.70307C18.8242 9.50518 18.91 9.27084 18.91 8.99999C18.91 8.72915 18.8243 8.49492 18.6535 8.29676L12.6081 1.29684C12.4373 1.09916 12.2349 1 12.0009 1C11.7668 1 11.5645 1.09916 11.3935 1.29684L5.34816 8.29676C5.1772 8.4947 5.0918 8.72915 5.0918 8.99999C5.0918 9.27078 5.1772 9.50518 5.34816 9.70307C5.5193 9.90101 5.72164 9.9999 5.9555 9.9999ZM18.0462 14.0003H5.9555C5.72145 14.0003 5.51911 14.0992 5.34816 14.2969C5.1772 14.4949 5.0918 14.7292 5.0918 15C5.0918 15.2708 5.1772 15.5053 5.34816 15.7031L11.3935 22.7029C11.5647 22.9009 11.767 23 12.0009 23C12.2347 23 12.4373 22.9009 12.6081 22.7029L18.6535 15.7031C18.8242 15.5053 18.91 15.2708 18.91 14.9999C18.91 14.7292 18.8243 14.4949 18.6535 14.2969C18.4827 14.099 18.2801 14.0003 18.0462 14.0003Z" fill="#333333"/>
</g>
<defs>
<clipPath id="clip0_1286_52">
<rect width="19" height="22" fill="white" transform="translate(2.5 1)"/>
</clipPath>
</defs>
</svg>
