<svg width="24" height="24" viewBox="0 0 24 24" fill="none" xmlns="http://www.w3.org/2000/svg">
<path d="M7 14V18C7 19.1046 6.10457 20 5 20C3.89543 20 3 19.1046 3 18V14C3 12.8954 3.89543 12 5 12C6.10457 12 7 12.8954 7 14Z" stroke="#fff" stroke-width="1.5" fill="#fff"/>
<path d="M21 10V18C21 19.1046 20.1046 20 19 20C17.8954 20 17 19.1046 17 18V10C17 8.89543 17.8954 8 19 8C20.1046 8 21 8.89543 21 10Z" stroke="#fff" stroke-width="1.5" fill="#fff"/>
<path d="M14 5V18C14 19.1046 13.1046 20 12 20C10.8954 20 10 19.1046 10 18V5C10 3.89543 10.8954 3 12 3C13.1046 3 14 3.89543 14 5Z" stroke="#fff" stroke-width="1.5" fill="#fff"/>
</svg>
