<svg width="24" height="24" viewBox="0 0 24 24" fill="none" xmlns="http://www.w3.org/2000/svg">
<path fill-rule="evenodd" clip-rule="evenodd" d="M21.4835 4.39583C21.2372 3.92781 20.836 3.55926 20.3481 3.3528C19.91 3.13029 19.4265 3.01132 18.9349 3.00513H5.18617C4.66725 2.97282 4.15029 3.09375 3.69989 3.3528C3.41499 3.44614 3.1516 3.59518 2.92512 3.79121C2.69864 3.98724 2.51361 4.22633 2.38084 4.49449C2.08457 4.99599 1.95588 5.57846 2.01339 6.1577C2.05555 6.69254 2.24643 7.20506 2.56456 7.63767L11.0889 22.4844C11.1952 22.6397 11.3373 22.7672 11.5033 22.8563C11.6693 22.9454 11.8544 22.9935 12.0429 22.9965C12.2368 23.0126 12.4313 22.9729 12.6033 22.8822C12.7753 22.7914 12.9176 22.6533 13.0133 22.4844L21.5753 7.63767C21.8762 7.17022 22.0235 6.62091 21.9969 6.06608C21.9691 5.47517 21.7925 4.90077 21.4835 4.39583ZM10.9617 17.8518L4.3971 6.42551C4.2275 6.07783 4.14035 5.90399 4.14035 5.90399C4.11573 5.74886 4.14658 5.59004 4.2275 5.4553C4.29321 5.29811 4.4185 5.17316 4.57611 5.10763H10.9617V17.8518ZM19.7239 5.96742C19.7593 6.14263 19.7593 6.32311 19.7239 6.49833L13.0133 17.9082V5.1828H18.843C19.0491 5.16026 19.2576 5.191 19.4484 5.27207L19.5402 5.36368C19.6321 5.36368 19.6321 5.52813 19.7239 5.52813C19.7663 5.67151 19.7663 5.82403 19.7239 5.96742Z" fill="white"/>
</svg>
