<svg width="28" height="28" viewBox="0 0 28 28" fill="none" xmlns="http://www.w3.org/2000/svg">
<g clip-path="url(#clip0_1222_35)">
<path d="M20 0C18.6805 0 17.4151 0.500445 16.4821 1.39124C15.5491 2.28204 15.0249 3.49022 15.0249 4.75C15.0249 6.00978 15.5491 7.21796 16.4821 8.10876C17.4151 8.99955 18.6805 9.5 20 9.5C21.3195 9.5 22.5849 8.99955 23.5179 8.10876C24.4509 7.21796 24.9751 6.00978 24.9751 4.75C24.9751 3.49022 24.4509 2.28204 23.5179 1.39124C22.5849 0.500445 21.3195 0 20 0ZM17.015 10.45C15.3603 10.45 13.7692 11.1701 12.8369 12.255C12.3643 12.806 12.0309 13.4872 12.0021 14.2424C11.9722 15.0138 12.2638 15.7662 12.8658 16.4227C14.3304 18.0234 16.6697 19 20 19C23.3303 19 25.6696 18.0234 27.1342 16.4227C27.7362 15.7662 28.0278 15.0138 27.9979 14.2424C27.9681 13.4872 27.6367 12.806 27.1621 12.255C26.2318 11.172 24.6407 10.45 22.985 10.45H17.015Z" fill="black"/>
<path d="M8 0C6.68053 0 5.4151 0.500445 4.4821 1.39124C3.54909 2.28204 3.02493 3.49022 3.02493 4.75C3.02493 6.00978 3.54909 7.21796 4.4821 8.10876C5.4151 8.99955 6.68053 9.5 8 9.5C9.31947 9.5 10.5849 8.99955 11.5179 8.10876C12.4509 7.21796 12.9751 6.00978 12.9751 4.75C12.9751 3.49022 12.4509 2.28204 11.5179 1.39124C10.5849 0.500445 9.31947 0 8 0ZM5.01496 10.45C3.36025 10.45 1.76922 11.1701 0.836897 12.255C0.364266 12.806 0.0309359 13.4872 0.00208046 14.2424C-0.0277699 15.0138 0.263769 15.7662 0.865752 16.4227C2.33041 18.0234 4.66969 19 8 19C11.3303 19 13.6696 18.0234 15.1342 16.4227C15.7362 15.7662 16.0278 15.0138 15.9979 14.2424C15.9681 13.4872 15.6367 12.806 15.1621 12.255C14.2318 11.172 12.6407 10.45 10.985 10.45H5.01496Z" fill="black"/>
<path d="M6.07788 19.6039L6.07847 19.6032C7.13098 18.3785 8.81438 17.5787 10.5785 17.4642C10.2999 17.277 10.0364 17.0659 9.79154 16.832C8.66625 15.7576 8.02493 14.2903 8.02493 12.75C8.02493 11.2097 8.66625 9.74235 9.79154 8.66796C10.9153 7.59508 12.4299 7 14 7C15.5701 7 17.0847 7.59508 18.2085 8.66796C19.3338 9.74235 19.9751 11.2097 19.9751 12.75C19.9751 14.2903 19.3338 15.7576 18.2085 16.832C17.9636 17.0659 17.7001 17.277 17.4215 17.4642C19.1866 17.5789 20.8697 18.3802 21.9202 19.6029C22.5062 20.2833 22.9564 21.1727 22.9971 22.2029L22.9972 22.2037C23.0385 23.2715 22.6279 24.2735 21.8713 25.0985C20.1656 26.9621 17.5237 28 14 28C10.4758 28 7.83361 26.9618 6.12798 25.0977M6.07788 19.6039L5.00281 22.2042C4.96165 23.2714 5.37198 24.2729 6.12798 25.0977M6.07788 19.6039C5.49626 20.282 5.04241 21.1712 5.00283 22.2037L6.07788 19.6039ZM6.12798 25.0977L6.86574 24.4227L6.12873 25.0985C6.12848 25.0982 6.12823 25.098 6.12798 25.0977Z" fill="black" stroke="white" stroke-width="2"/>
</g>
<defs>
<clipPath id="clip0_1222_35">
<rect width="28" height="28" fill="white"/>
</clipPath>
</defs>
</svg>
