<svg width="24" height="24" viewBox="0 0 24 24" fill="none" xmlns="http://www.w3.org/2000/svg">
<path d="M14.25 13.5749V15.0749C14.25 17.1449 15.93 18.8249 18 18.8249H21V19.5749C21 20.8124 19.9875 21.8249 18.75 21.8249H3.75C2.5125 21.8249 1.5 20.8124 1.5 19.5749V9.07485C1.5 7.82985 2.5125 6.82485 3.75 6.82485H18.75C19.9875 6.82485 21 7.82985 21 9.07485V9.82485H18C15.93 9.82485 14.25 11.5049 14.25 13.5749ZM23.25 13.5749V15.0749C23.25 15.7349 22.9575 16.3349 22.5 16.7474C22.1025 17.1074 21.57 17.3249 21 17.3249H18C16.7625 17.3249 15.75 16.3124 15.75 15.0749V13.5749C15.75 12.3299 16.7625 11.3249 18 11.3249H21C21.57 11.3249 22.1025 11.5424 22.5 11.9024C22.9575 12.3074 23.25 12.9074 23.25 13.5749ZM19.5 14.3249C19.5 13.9124 19.1625 13.5749 18.75 13.5749C18.3375 13.5749 18 13.9124 18 14.3249C18 14.7374 18.3375 15.0749 18.75 15.0749C19.1625 15.0749 19.5 14.7374 19.5 14.3249ZM16.9575 3.80985C16.8671 3.49687 16.7105 3.20697 16.4983 2.95981C16.2861 2.71266 16.0232 2.51401 15.7275 2.37735C15.1275 2.10735 14.4375 2.10735 13.8375 2.38485L7.545 5.32485H17.3925L16.9575 3.80985Z" fill="white"/>
</svg>
